<svg id="Calque_1" viewBox="0 0 179.83 79.45" xmlns="http://www.w3.org/2000/svg">
    <defs>
        <style>.cls-1{fill:#000;stroke-width:0px;}</style>
    </defs>
    <path class="cls-1" d="M43.69,32.58l-.36.15-2.1.55-5.09,26.11-9.41-21.9-9.81,2.84.81,39.11,8.68-2.51-.64-22.76,8.11,19.32,7.45-2.16,4.41-23.31,3.49,22.29,8.4-2.43-6.08-37.58-7.84,2.27ZM49.99,69.12l-3.75-23.92h-.93s-4.81,25.4-4.81,25.4l-6.09,1.77-8.76-20.87-.9.2.7,24.55-6.8,1.97-.77-37.16,8.32-2.41,10.28,23.94,5.56-28.53,1.92-.51.45-.18h0s6.37-1.86,6.37-1.86l5.78,35.71-6.57,1.91Z"></path>
    <path class="cls-1" d="M73.34,23.27c-5.71,1.65-10.39,5.36-13.18,10.45-2.76,5.01-3.39,10.8-1.8,16.3,1.39,4.78,4.33,8.61,8.29,10.78,2.47,1.35,5.21,2.03,8.1,2.03,1.86,0,3.78-.28,5.73-.85,5.61-1.62,10.23-5.28,13.02-10.29,2.81-5.04,3.46-10.91,1.83-16.53-2.92-10.08-11.76-14.85-21.99-11.89ZM92.68,51.23c-2.67,4.79-7.1,8.29-12.46,9.85-4.75,1.38-9.28.99-13.11-1.11-3.74-2.05-6.52-5.68-7.84-10.21-1.52-5.25-.91-10.79,1.72-15.58,2.67-4.86,7.15-8.42,12.62-10,1.92-.56,3.78-.82,5.56-.82,7.22,0,13.04,4.42,15.26,12.08,1.56,5.38.94,10.99-1.75,15.81Z"></path>
    <path class="cls-1" d="M82.49,31.85c-2.19-1.26-4.81-1.49-7.58-.69-6.57,1.9-10.29,9.05-8.29,15.92,1.38,4.75,4.87,7.51,9.13,7.51.98,0,2.01-.15,3.06-.45,6.68-1.94,10.31-8.97,8.27-16.02-.83-2.85-2.41-5.01-4.59-6.26ZM78.55,53.23c-5.14,1.49-9.47-1.03-11.03-6.41-.89-3.07-.61-6.29.8-9.06,1.42-2.8,3.86-4.83,6.85-5.69.98-.29,1.94-.43,2.87-.43,1.44,0,2.79.35,3.98,1.03,1.96,1.13,3.4,3.1,4.15,5.71h0c1.9,6.54-1.45,13.07-7.62,14.86Z"></path>
    <path class="cls-1" d="M125.37,35.79c-2-6.91-7.84-7.49-12.53-7.96-3.2-.32-5.73-.58-6.31-2.59-.24-.83-.08-1.64.45-2.34.57-.75,1.52-1.33,2.75-1.68,2.5-.73,4.27.09,5.43,2.49l.24.5,7.93-5.65-.12-.34c-1.8-5.01-7.98-7.09-15.03-5.05-4.05,1.18-7.22,3.31-9.16,6.18-1.93,2.85-2.45,6.28-1.48,9.64,1.88,6.48,7.49,7.03,12,7.47,3.29.32,6.13.6,6.82,2.97.28.98.14,1.91-.43,2.68-.59.81-1.61,1.45-2.96,1.84-3.25.94-5.95-.18-7.23-3l-.24-.53-7.94,5.79.18.36c2.13,4.28,5.93,6.53,10.78,6.53,1.69,0,3.51-.27,5.43-.83,8.95-2.59,13.55-9.22,11.44-16.5ZM98.75,46.52l6.38-4.65c1.56,2.86,4.61,4.01,8.09,3.01,1.55-.45,2.75-1.21,3.46-2.19.74-1.02.94-2.23.57-3.5-.86-2.98-4.15-3.3-7.63-3.65-4.44-.44-9.48-.93-11.18-6.8-.91-3.14-.44-6.2,1.35-8.85,1.82-2.69,4.81-4.69,8.64-5.81,6.39-1.85,11.98-.15,13.76,4.13l-6.45,4.59c-1.37-2.43-3.52-3.29-6.28-2.49-1.42.41-2.54,1.11-3.23,2.02-.72.94-.93,2.06-.61,3.17.76,2.62,3.71,2.92,7.12,3.26,4.64.46,9.9.99,11.72,7.29,1.95,6.73-2.39,12.89-10.8,15.33-6.78,1.97-12.2.2-14.92-4.86Z"></path>
    <path class="cls-1" d="M139.22,44.24l-1.36-15.17,11.3-3.28,1.36,15.17,9.07-2.63-3.47-38.34-9.07,2.63,1.33,14.52-11.3,3.28-1.34-14.52-9.01,2.62,3.47,38.34,9.02-2.62ZM134.91,7.12l1.34,14.52,13.14-3.81-1.33-14.52,7.22-2.09,3.3,36.43-7.23,2.09-1.36-15.17-13.14,3.81,1.36,15.17-7.18,2.08-3.3-36.43,7.18-2.08Z"></path>
    <rect class="cls-1" x="112.22" y="51.67" width="69" height="1" transform="matrix(0.955485, -0.295041, 0.295041, 0.955485, -85.29361, 62.473289)"></rect>
    <rect class="cls-1" x="-1.39" y="23.79" width="69" height="1" transform="matrix(0.955485, -0.295041, 0.295041, 0.955485, 54.487766, -2.790058)"></rect>
</svg>